<svg width="17" height="12" viewBox="0 0 17 12" fill="none" xmlns="http://www.w3.org/2000/svg">
<path d="M4.745 11.6667C4.16722 11.6667 3.67528 11.4639 3.26917 11.0583C2.86306 10.6544 2.66 10.1628 2.66 9.58333H1.30917C1.19083 9.58333 1.09194 9.54333 1.0125 9.46333C0.933056 9.38333 0.893056 9.28417 0.8925 9.16583C0.891944 9.0475 0.931944 8.94861 1.0125 8.86917C1.09306 8.78972 1.19194 8.75 1.30917 8.75H2.87333C3.02389 8.37945 3.26694 8.07833 3.6025 7.84667C3.93806 7.61556 4.31833 7.5 4.74333 7.5C5.16833 7.5 5.54889 7.61556 5.885 7.84667C6.22 8.07833 6.46278 8.37945 6.61333 8.75H10.4617L12.2917 0.833333H3.67C3.55167 0.833333 3.4525 0.793333 3.3725 0.713333C3.2925 0.633333 3.25278 0.534167 3.25333 0.415833C3.25389 0.2975 3.29361 0.198611 3.3725 0.119167C3.45139 0.0397223 3.55056 0 3.67 0H12.4842C12.6975 0 12.8714 0.0855556 13.0058 0.256667C13.1408 0.427778 13.1842 0.618333 13.1358 0.828333L12.6583 2.91667H13.7175C13.9308 2.91667 14.1328 2.96444 14.3233 3.06C14.5144 3.155 14.6717 3.28667 14.795 3.455L16.2925 5.45333C16.4136 5.61556 16.4922 5.78472 16.5283 5.96083C16.565 6.13639 16.5678 6.32083 16.5367 6.51417L16.0383 9.045C16.0072 9.20722 15.9283 9.3375 15.8017 9.43583C15.675 9.53417 15.5311 9.58333 15.37 9.58333H14.9675C14.9675 10.1606 14.7653 10.6522 14.3608 11.0583C13.9564 11.4644 13.4647 11.6672 12.8858 11.6667C12.3069 11.6661 11.815 11.4633 11.41 11.0583C11.0044 10.6539 10.8017 10.1622 10.8017 9.58333H6.82667C6.82667 10.1606 6.62444 10.6522 6.22 11.0583C5.81556 11.4644 5.32389 11.6672 4.745 11.6667ZM11.7325 6.875H15.6083L15.7558 6.13333L13.9742 3.75H12.4592L11.7325 6.875ZM10.6633 7.915L10.7717 7.43167C10.8439 7.10945 10.9356 6.715 11.0467 6.24833C11.1094 5.99278 11.1644 5.75667 11.2117 5.54C11.2583 5.32333 11.2956 5.14389 11.3233 5.00167L11.4317 4.51833C11.5039 4.19611 11.5956 3.80167 11.7067 3.335C11.8178 2.86833 11.9094 2.47389 11.9817 2.15167L12.09 1.66833L12.2917 0.833333L10.4608 8.75L10.6633 7.915ZM0.400833 6.665C0.286945 6.665 0.191667 6.625 0.115 6.545C0.0383333 6.465 0 6.36611 0 6.24833C0 6.13056 0.0397222 6.03139 0.119167 5.95083C0.198611 5.87028 0.297778 5.83056 0.416667 5.83167H3.31667C3.435 5.83167 3.53417 5.87167 3.61417 5.95167C3.69417 6.03167 3.73389 6.13083 3.73333 6.24917C3.73278 6.3675 3.69306 6.46639 3.61417 6.54583C3.53528 6.62528 3.43611 6.665 3.31667 6.665H0.400833ZM2.0675 3.75167C1.94917 3.75167 1.85 3.71167 1.77 3.63167C1.69 3.55167 1.65 3.4525 1.65 3.33417C1.65 3.21583 1.69 3.11695 1.77 3.0375C1.85 2.95806 1.94889 2.91833 2.06667 2.91833H5.81667C5.935 2.91833 6.03417 2.95833 6.11417 3.03833C6.19361 3.11833 6.23333 3.2175 6.23333 3.33583C6.23333 3.45417 6.19361 3.55306 6.11417 3.6325C6.03472 3.71194 5.93556 3.75167 5.81667 3.75167H2.0675ZM4.74333 10.8333C5.08611 10.8333 5.38028 10.7108 5.62583 10.4658C5.87083 10.2203 5.99333 9.92611 5.99333 9.58333C5.99333 9.24056 5.87083 8.94639 5.62583 8.70083C5.38083 8.45528 5.08667 8.33278 4.74333 8.33333C4.4 8.33389 4.10583 8.45639 3.86083 8.70083C3.61583 8.94639 3.49333 9.24056 3.49333 9.58333C3.49333 9.92611 3.61583 10.2203 3.86083 10.4658C4.10639 10.7108 4.40056 10.8333 4.74333 10.8333ZM12.885 10.8333C13.2278 10.8333 13.5217 10.7108 13.7667 10.4658C14.0117 10.2203 14.1342 9.92611 14.1342 9.58333C14.1342 9.24056 14.0117 8.94639 13.7667 8.70083C13.5217 8.45528 13.2275 8.33278 12.8842 8.33333C12.5408 8.33389 12.2469 8.45639 12.0025 8.70083C11.7569 8.94639 11.6342 9.24056 11.6342 9.58333C11.6342 9.92611 11.7567 10.2203 12.0017 10.4658C12.2472 10.7108 12.5417 10.8333 12.885 10.8333Z" fill="#3C3C3C"/>
</svg>
