<svg width="16" height="14" viewBox="0 0 16 14" fill="none" xmlns="http://www.w3.org/2000/svg">
<path d="M13.58 3.48667C13.48 3.38667 13.3467 3.33333 13.2 3.33333H11.0667V0.533333C11.0667 0.24 10.8267 0 10.5333 0H0.533333C0.24 0 0 0.24 0 0.533333V9.2C0 9.49333 0.24 9.73333 0.533333 9.73333H1.66C1.46 10.0667 1.33333 10.4533 1.33333 10.8667C1.33333 12.08 2.32 13.0667 3.53333 13.0667C4.74667 13.0667 5.73333 12.08 5.73333 10.8667C5.73333 10.4533 5.61333 10.0667 5.40667 9.73333H10.32C10.12 10.0667 9.99333 10.4533 9.99333 10.8667C9.99333 12.08 10.98 13.0667 12.1933 13.0667C13.4067 13.0667 14.3933 12.08 14.3933 10.8667C14.3933 10.4533 14.2733 10.0667 14.0667 9.73333H15.1933C15.4867 9.73333 15.7267 9.49333 15.7267 9.2V5.86667C15.7267 5.72667 15.6733 5.58667 15.5733 5.48667L13.5733 3.48667H13.58ZM1.06667 1.06667H10V8.66667H1.06667V1.06667ZM4.66667 10.8667C4.66667 11.4933 4.16 12 3.53333 12C2.90667 12 2.4 11.4933 2.4 10.8667C2.4 10.24 2.90667 9.73333 3.53333 9.73333C4.16 9.73333 4.66667 10.24 4.66667 10.8667ZM13.3333 10.8667C13.3333 11.4933 12.8267 12 12.2 12C11.5733 12 11.0667 11.4933 11.0667 10.8667C11.0667 10.24 11.5733 9.73333 12.2 9.73333C12.8267 9.73333 13.3333 10.24 13.3333 10.8667ZM14.6667 8.66667H11.0667V4.4H12.98L14.6667 6.08667V8.66667Z" fill="#3C3C3C"/>
</svg>
