<svg width="18" height="17" viewBox="0 0 18 17" fill="none" xmlns="http://www.w3.org/2000/svg">
<path d="M13.0172 0H4.45476C3.27329 0 2.1402 0.451288 1.30477 1.25459C0.46934 2.05788 0 3.14739 0 4.28342L0 12.5166C0 13.6526 0.46934 14.7421 1.30477 15.5454C2.1402 16.3487 3.27329 16.8 4.45476 16.8H13.0172C14.1987 16.8 15.3318 16.3487 16.1672 15.5454C17.0027 14.7421 17.472 13.6526 17.472 12.5166V4.28342C17.472 3.14739 17.0027 2.05788 16.1672 1.25459C15.3318 0.451288 14.1987 0 13.0172 0ZM8.77071 13.6451C7.71866 13.6451 6.69025 13.3451 5.81551 12.7831C4.94077 12.2211 4.25899 11.4223 3.85639 10.4877C3.4538 9.55315 3.34846 8.52477 3.5537 7.53263C3.75894 6.54049 4.26555 5.62915 5.00945 4.91386C5.75336 4.19856 6.70115 3.71144 7.73298 3.51409C8.7648 3.31675 9.83432 3.41803 10.8063 3.80515C11.7782 4.19226 12.609 4.84782 13.1935 5.68891C13.778 6.53001 14.0899 7.51887 14.0899 8.53045C14.0882 9.88644 13.5273 11.1864 12.5301 12.1453C11.5329 13.1041 10.1809 13.6435 8.77071 13.6451ZM14.3991 4.29556C14.1495 4.29556 13.9055 4.22439 13.698 4.09106C13.4905 3.95772 13.3287 3.76821 13.2332 3.54649C13.1377 3.32476 13.1127 3.08078 13.1614 2.84539C13.2101 2.61001 13.3303 2.3938 13.5068 2.2241C13.6832 2.05439 13.9081 1.93883 14.1529 1.89201C14.3977 1.84518 14.6514 1.86921 14.882 1.96106C15.1126 2.0529 15.3097 2.20843 15.4484 2.40798C15.5871 2.60752 15.6611 2.84213 15.6611 3.08212C15.6611 3.40395 15.5281 3.71259 15.2914 3.94015C15.0548 4.16772 14.7338 4.29556 14.3991 4.29556Z" fill="#222222"/>
<path d="M8.77085 11.8065C8.09694 11.8065 7.43817 11.6143 6.87784 11.2543C6.31751 10.8943 5.88079 10.3826 5.62289 9.78396C5.365 9.1853 5.29753 8.52655 5.429 7.89101C5.56047 7.25548 5.88499 6.6717 6.36151 6.21351C6.83803 5.75531 7.44516 5.44328 8.10611 5.31686C8.76707 5.19044 9.45217 5.25533 10.0748 5.5033C10.6974 5.75127 11.2295 6.1712 11.6039 6.70998C11.9783 7.24876 12.1782 7.8822 12.1782 8.53018C12.1765 9.39861 11.817 10.231 11.1783 10.8451C10.5397 11.4592 9.67402 11.8049 8.77085 11.8065Z" fill="#222222"/>
</svg>
