<svg width="14" height="14" viewBox="0 0 14 14" fill="none" xmlns="http://www.w3.org/2000/svg">
<path d="M11.2 0H1.86667C0.84 0 0 0.9975 0 2.21667V11.7167C0 12.9358 0.84 13.9333 1.86667 13.9333H11.2C12.2267 13.9333 13.0667 12.9358 13.0667 11.7167V2.21667C13.0667 0.9975 12.2267 0 11.2 0ZM11.2 1.26667C11.64 1.26667 12 1.69417 12 2.21667V2.69167C12 3.82375 11.34 4.75 10.5333 4.75C9.72667 4.75 9.06667 3.82375 9.06667 2.69167V1.26667H11.2ZM8 1.26667V2.69167C8 3.82375 7.34 4.75 6.53333 4.75C5.72667 4.75 5.06667 3.82375 5.06667 2.69167V1.26667H8ZM1.06667 2.21667C1.06667 1.69417 1.42667 1.26667 1.86667 1.26667H4V2.69167C4 3.82375 3.34 4.75 2.53333 4.75C1.72667 4.75 1.06667 3.82375 1.06667 2.69167V2.21667ZM4.53333 12.6667C4.46 12.6667 4.4 12.5954 4.4 12.5083V9.34167C4.4 9.25458 4.46 9.18333 4.53333 9.18333H8.53333C8.60667 9.18333 8.66667 9.25458 8.66667 9.34167V12.5083C8.66667 12.5954 8.60667 12.6667 8.53333 12.6667H4.53333ZM11.2 12.6667H9.72C9.72 12.6112 9.73333 12.5638 9.73333 12.5083V9.34167C9.73333 8.55792 9.19333 7.91667 8.53333 7.91667H4.53333C3.87333 7.91667 3.33333 8.55792 3.33333 9.34167V12.5083C3.33333 12.5638 3.34 12.6112 3.34667 12.6667H1.86667C1.42667 12.6667 1.06667 12.2392 1.06667 11.7167V5.39125C1.48 5.77917 1.98667 6.01667 2.53333 6.01667C3.35333 6.01667 4.06667 5.50208 4.53333 4.71042C5 5.50208 5.71333 6.01667 6.53333 6.01667C7.35333 6.01667 8.06667 5.50208 8.53333 4.71042C9 5.50208 9.71333 6.01667 10.5333 6.01667C11.08 6.01667 11.5867 5.77917 12 5.39125V11.7167C12 12.2392 11.64 12.6667 11.2 12.6667Z" fill="#3C3C3C"/>
</svg>
