<svg width="156" height="32" viewBox="0 0 156 32" fill="none" xmlns="http://www.w3.org/2000/svg">
<g clip-path="url(#clip0_813_19433)">
<path d="M44.9576 5.05197C44.6982 4.08536 44.1901 3.20402 43.4841 2.49622C42.7781 1.78841 41.899 1.27895 40.9348 1.01887C37.3853 0.0662231 23.1506 0.0662231 23.1506 0.0662231C23.1506 0.0662231 8.92681 0.0662231 5.37729 1.01887C4.41315 1.27895 3.53407 1.78841 2.82807 2.49622C2.12207 3.20402 1.61393 4.08536 1.3545 5.05197C0.404297 8.61059 0.404297 16.0331 0.404297 16.0331C0.404297 16.0331 0.404297 23.4556 1.3545 27.0143C1.61393 27.9809 2.12207 28.8622 2.82807 29.57C3.53407 30.2778 4.41315 30.7873 5.37729 31.0474C8.92681 32 23.1561 32 23.1561 32C23.1561 32 37.3853 32 40.9348 31.0474C41.899 30.7873 42.7781 30.2778 43.4841 29.57C44.1901 28.8622 44.6982 27.9809 44.9576 27.0143C45.9078 23.4556 45.9078 16.0331 45.9078 16.0331C45.9078 16.0331 45.9078 8.61059 44.9576 5.05197Z" fill="#FF0000"/>
<path d="M18.6055 22.8764L30.428 16.0332L18.6055 9.18994V22.8764Z" fill="white"/>
<path d="M66.1267 10.1994V11.3029C66.1267 16.8201 63.687 20.044 58.3508 20.044H57.5382V29.6992H53.1797V2.33919H58.736C63.8172 2.33919 66.1267 4.49275 66.1267 10.1994ZM61.5408 10.5911C61.5408 6.61137 60.8254 5.66608 58.3526 5.66608H57.54V16.7888H58.2884C60.6309 16.7888 61.5426 15.0932 61.5426 11.4077L61.5408 10.5911ZM76.4396 9.3847L76.2121 14.5709C74.3576 14.1792 72.8277 14.4734 72.1453 15.6744V29.6992H67.8198V9.71022H71.2685L71.6592 14.0431H71.8225C72.2774 10.8799 73.7412 9.28171 75.6288 9.28171C75.9018 9.28947 76.1733 9.32396 76.4396 9.3847ZM81.4163 21.2155V22.227C81.4163 25.7507 81.6107 26.9571 83.1075 26.9571C84.5384 26.9571 84.8649 25.8537 84.8961 23.5658L88.7666 23.7939C89.0601 28.0992 86.8148 30.0229 83.0085 30.0229C78.3895 30.0229 77.0229 26.9902 77.0229 21.4785V17.9842C77.0229 12.1783 78.5528 9.34056 83.1387 9.34056C87.7577 9.34056 88.9299 11.7534 88.9299 17.7875V21.2155H81.4163ZM81.4163 17.1052V18.5396H84.7016V17.1144C84.7016 13.4362 84.4411 12.3842 83.0507 12.3842C81.6602 12.3842 81.4163 13.4619 81.4163 17.1144V17.1052ZM111.282 14.5948V29.6955H106.797V14.9295C106.797 13.2983 106.373 12.4836 105.397 12.4836C104.616 12.4836 103.9 12.9396 103.412 13.7875C103.44 14.0581 103.451 14.3302 103.445 14.6022V29.7029H98.9529V14.9295C98.9529 13.2983 98.5291 12.4836 97.5533 12.4836C96.7718 12.4836 96.0858 12.9396 95.6015 13.7562V29.7047H91.1128V9.71022H94.6586L95.0567 12.2555H95.1209C96.1298 10.3318 97.7569 9.28723 99.6756 9.28723C101.563 9.28723 102.636 10.2325 103.124 11.93C104.166 10.2013 105.727 9.28723 107.516 9.28723C110.242 9.28723 111.282 11.244 111.282 14.5948ZM113.527 4.59022C113.527 2.43666 114.308 1.81873 115.967 1.81873C117.658 1.81873 118.406 2.53597 118.406 4.59022C118.406 6.80815 117.658 7.36355 115.967 7.36355C114.308 7.36171 113.527 6.80815 113.527 4.59022ZM113.787 9.71022H118.082V29.7047H113.787V9.71022ZM132.753 9.71022V29.7047H129.24L128.85 27.2587H128.752C127.743 29.2155 126.28 30.0302 124.458 30.0302C121.791 30.0302 120.586 28.3346 120.586 24.6491V9.71022H125.074V24.3879C125.074 26.1498 125.441 26.867 126.344 26.867C126.749 26.8504 127.141 26.723 127.479 26.4987C127.816 26.2743 128.086 25.9616 128.259 25.5944V9.71022H132.753ZM155.525 14.5948V29.6955H151.036V14.9295C151.036 13.2983 150.613 12.4836 149.637 12.4836C148.855 12.4836 148.14 12.9396 147.652 13.7875C147.68 14.0556 147.691 14.3253 147.685 14.5948V29.6955H143.196V14.9295C143.196 13.2983 142.772 12.4836 141.797 12.4836C141.015 12.4836 140.329 12.9396 139.845 13.7562V29.7047H135.356V9.71022H138.898L139.289 12.2537H139.353C140.362 10.33 141.989 9.28539 143.908 9.28539C145.796 9.28539 146.869 10.2307 147.357 11.9282C148.399 10.1994 149.96 9.28539 151.748 9.28539C154.49 9.28723 155.525 11.244 155.525 14.5948Z" fill="black"/>
</g>
<defs>
<clipPath id="clip0_813_19433">
<rect width="156" height="32" fill="white"/>
</clipPath>
</defs>
</svg>
